<svg xmlns="http://www.w3.org/2000/svg" viewBox="0 0 700 250"><defs><style>.cls-1{fill:#66addf;}.cls-2,.cls-7{fill:none;}.cls-2{stroke:#e8edf0;stroke-linecap:round;stroke-width:2px;}.cls-3{fill:#68c9ee;opacity:0.8;}.cls-3,.cls-4{isolation:isolate;}.cls-4{fill:#fa8c5b;opacity:0.9;}.cls-5,.cls-6{fill:#35365f;}.cls-5,.cls-7{stroke:#35365f;}.cls-5{stroke-width:0.5px;}.cls-8{fill:#eaeff2;}</style></defs><g id="Layer_4" data-name="Layer 4"><path class="cls-1" d="M425.05,28l4.81,1.28A67.91,67.91,0,0,0,507.24-4.45c28.59-53.74-22.5-115-80.51-96.62l-130,41.27a60.51,60.51,0,0,0-40.62,44A60.58,60.58,0,0,0,301.5,56.83a60.69,60.69,0,0,0,46.49-8l18-11.52A74.18,74.18,0,0,1,425.05,28Z"/><path class="cls-2" d="M545.65,1.28l7.11-16.36c37.2-85.55-47.86-173.25-134.51-138.7L275.06-96.67a100.4,100.4,0,0,0-60.59,70.53L210.36-8.43a80.27,80.27,0,0,0,121.7,85.62l32.16-20.75a85.36,85.36,0,0,1,74.71-8.74A85.33,85.33,0,0,0,545.65,1.28Z"/></g><g id="Layer_2" data-name="Layer 2"><path class="cls-3" d="M367.63,170l13.92,31a10,10,0,0,0,13.23,5l31-13.86a10,10,0,0,0,5-13.21l-13.92-31a10,10,0,0,0-13.23-5l-31,13.86A10,10,0,0,0,367.63,170Z"/><path class="cls-4" d="M746.87,77.72l-22.76,6.81A10,10,0,0,0,717.41,97l6.81,22.68a10,10,0,0,0,12.46,6.71l22.77-6.82a10,10,0,0,0,6.7-12.44l-6.82-22.69A10,10,0,0,0,746.87,77.72Z"/><path class="cls-5" d="M400.28,44.37a6.79,6.79,0,1,0,6.79-6.77A6.79,6.79,0,0,0,400.28,44.37Zm1.51,0a5.28,5.28,0,1,1,5.28,5.27A5.28,5.28,0,0,1,401.79,44.37Z"/><path class="cls-5" d="M758.28,57.37a6.79,6.79,0,1,0,6.79-6.77A6.79,6.79,0,0,0,758.28,57.37Zm1.51,0a5.28,5.28,0,1,1,5.28,5.27A5.28,5.28,0,0,1,759.79,57.37Z"/><path class="cls-5" d="M325.28,193.21a4.62,4.62,0,1,0,4.62-4.61A4.62,4.62,0,0,0,325.28,193.21Zm1.51,0a3.11,3.11,0,1,1,3.11,3.1A3.11,3.11,0,0,1,326.79,193.21Z"/><path class="cls-5" d="M529.48,182h0a.72.72,0,0,0,.44.36.7.7,0,0,0,.23,0,.83.83,0,0,0,.36-.09l8.85-4.75h0a.75.75,0,0,0,.31-1h0L534.56,167h0a.77.77,0,0,0-1-.31h0l-8.86,4.75h0a.76.76,0,0,0-.31,1h0Zm8.5-5.41-7.52,4-4.4-8.17,7.52-4Z"/><path class="cls-5" d="M367.9,89.78h0a.75.75,0,0,0,.54.22h0a.77.77,0,0,0,.53-.21.77.77,0,0,0,0-1.07h0l-11.72-12h0a.77.77,0,0,0-1.07,0,.75.75,0,0,0,0,1.06h0Z"/><path class="cls-5" d="M488.87,45.91h0a.75.75,0,0,0,.54.22h0a.73.73,0,0,0,.53-.21.77.77,0,0,0,0-1.07h0l-11.72-12h0a.77.77,0,0,0-1.07,0,.76.76,0,0,0,0,1.07h0Z"/><path class="cls-5" d="M299.49,151.36h0a.76.76,0,0,0,.48,1.28H300a.76.76,0,0,0,.54-.23h0c4.55-4.72,9.41-7.55,14.89-8.59s11.6-.27,18.69,2.26h0c7.21,2.57,13,3.13,18.35,1.21s10.4-6.28,16.18-13.46h0a.77.77,0,0,0-.11-1.07h0a.76.76,0,0,0-1.06.12h0c-5.67,7-10.41,11.2-15.45,13s-10.41,1.26-17.4-1.23c-7.36-2.62-13.76-3.43-19.53-2.33S304.26,146.42,299.49,151.36Z"/><path class="cls-5" d="M406.79,191.63a.83.83,0,0,1-.55-.18.78.78,0,0,1-.24-.87c4.16-11.82-.59-25-4.51-33.93-.9-2-1.85-4.1-2.78-6.09-4.08-8.75-8.28-17.82-9-27.61a41.45,41.45,0,0,1,15.79-35.54c8.94-6.78,20.32-9.37,30.27-11.25,15.06-2.85,29.78-4.35,47.45-6,16.7-1.57,29.44,1,37.9,7.53a24.43,24.43,0,0,1,9.35,14.77c2.93,17.67,4.07,35.51-7.32,46.45-6.05,5.81-14.23,8.05-22.78,10-14,3.21-28.32,5.91-42.54,8-12.85,1.91-27.43,4.11-35.79,14.36a53.94,53.94,0,0,0-5.08,8c-2.59,4.62-5.28,9.4-9.79,12.28a.65.65,0,0,1-.34.11ZM483.32,71.7c-17.64,1.67-32.32,3.16-47.31,6-9.79,1.85-21,4.39-29.64,11a39.9,39.9,0,0,0-15.17,34.17c.74,9.5,4.88,18.43,8.88,27.08.93,2,1.89,4.07,2.79,6.12,3.79,8.59,8.3,21.08,5.25,32.79,3.14-2.69,5.24-6.44,7.44-10.37a56.35,56.35,0,0,1,5.23-8.2c8.72-10.7,23.61-12.94,36.73-14.9,14.18-2.12,28.46-4.82,42.44-8,8.33-1.9,16.29-4.06,22.07-9.61,10.87-10.42,9.71-27.82,6.86-45a22.68,22.68,0,0,0-8.76-13.78c-8.13-6.33-20.53-8.75-36.83-7.21Z"/><path class="cls-5" d="M419.68,119.24h0l25.76-2.54h.1a1.15,1.15,0,0,0-.22-2.27h0L419.47,117l0,.25,0-.25h0a1.15,1.15,0,0,0,.22,2.28Z"/><path class="cls-5" d="M459.39,115.5h0l43.82-5h0a1.16,1.16,0,0,0,.86-1.33h0A1.13,1.13,0,0,0,503,108h0l-43.81,5h0a1.16,1.16,0,0,0-.86,1.33h0A1.13,1.13,0,0,0,459.39,115.5Z"/><path class="cls-5" d="M420.25,136.19h0a1.07,1.07,0,0,0,1.12,1h0l0-.25,0,.25h0l79.61-9.6h0a1.07,1.07,0,0,0,.89-1.21h0a1.06,1.06,0,0,0-1.14-1h0L421.14,135h0A1.08,1.08,0,0,0,420.25,136.19Z"/><path class="cls-5" d="M419.53,100.73h0a1.08,1.08,0,0,0,1.12,1h0l0-.25,0,.25h0l79.6-9.59h0a1.1,1.1,0,0,0,.89-1.22h0a1.07,1.07,0,0,0-1.14-1h0l-79.61,9.59h0A1.08,1.08,0,0,0,419.53,100.73Z"/><path class="cls-6" d="M687.63,183.25l-.09,0C681.47,180,678,173.91,674.63,168a58.72,58.72,0,0,0-6.62-10c-7.65-8.56-18.88-10.44-30.77-12.44-10-1.67-20.29-3.39-28.3-9.44A31.77,31.77,0,0,1,596.88,107c1.54-11.39,10.1-21.69,20.38-24.48,5-1.37,10.31-1.06,14.83-.59A121.9,121.9,0,0,1,672,93.2c11.93,5.72,18.88,12.56,21.23,20.94,2.45,8.69-.32,17.8-3,26.62-.94,3.09-1.91,6.29-2.63,9.4a63.92,63.92,0,0,0,.82,32.31.62.62,0,0,1-.19.65.56.56,0,0,1-.56.13Zm-33.32-35.13c5.51,1.85,10.56,4.57,14.55,9.07a59.47,59.47,0,0,1,6.77,10.16c3,5.31,6.17,10.8,11.22,14a65.44,65.44,0,0,1-.42-31.48c.74-3.15,1.71-6.36,2.66-9.48,2.62-8.64,5.33-17.56,3-25.89-2.25-8-9-14.63-20.63-20.2a121,121,0,0,0-39.52-11.2c-4.41-.47-9.56-.76-14.41.56-9.81,2.68-18,12.52-19.47,23.43a31,31,0,0,0,11.61,28.06c7.8,5.88,18,7.59,27.83,9.24a110.32,110.32,0,0,1,16.85,3.73Z"/><path class="cls-7" d="M687.63,183.25l-.09,0C681.47,180,678,173.91,674.63,168a58.72,58.72,0,0,0-6.62-10c-7.65-8.56-18.88-10.44-30.77-12.44-10-1.67-20.29-3.39-28.3-9.44A31.77,31.77,0,0,1,596.88,107c1.54-11.39,10.1-21.69,20.38-24.48,5-1.37,10.31-1.06,14.83-.59A121.9,121.9,0,0,1,672,93.2c11.93,5.72,18.88,12.56,21.23,20.94,2.45,8.69-.32,17.8-3,26.62-.94,3.09-1.91,6.29-2.63,9.4a63.92,63.92,0,0,0,.82,32.31.62.62,0,0,1-.19.65.56.56,0,0,1-.56.13Zm-33.32-35.13c5.51,1.85,10.56,4.57,14.55,9.07a59.47,59.47,0,0,1,6.77,10.16c3,5.31,6.17,10.8,11.22,14a65.44,65.44,0,0,1-.42-31.48c.74-3.15,1.71-6.36,2.66-9.48,2.62-8.64,5.33-17.56,3-25.89-2.25-8-9-14.63-20.63-20.2a121,121,0,0,0-39.52-11.2c-4.41-.47-9.56-.76-14.41.56-9.81,2.68-18,12.52-19.47,23.43a31,31,0,0,0,11.61,28.06c7.8,5.88,18,7.59,27.83,9.24a110.32,110.32,0,0,1,16.85,3.73Z"/><path class="cls-7" d="M687.63,183.25l-.09,0C681.47,180,678,173.91,674.63,168a58.72,58.72,0,0,0-6.62-10c-7.65-8.56-18.88-10.44-30.77-12.44-10-1.67-20.29-3.39-28.3-9.44A31.77,31.77,0,0,1,596.88,107c1.54-11.39,10.1-21.69,20.38-24.48,5-1.37,10.31-1.06,14.83-.59A121.9,121.9,0,0,1,672,93.2c11.93,5.72,18.88,12.56,21.23,20.94,2.45,8.69-.32,17.8-3,26.62-.94,3.09-1.91,6.29-2.63,9.4a63.92,63.92,0,0,0,.82,32.31.62.62,0,0,1-.19.65.56.56,0,0,1-.56.13Zm-33.32-35.13c5.51,1.85,10.56,4.57,14.55,9.07a59.47,59.47,0,0,1,6.77,10.16c3,5.31,6.17,10.8,11.22,14a65.44,65.44,0,0,1-.42-31.48c.74-3.15,1.71-6.36,2.66-9.48,2.62-8.64,5.33-17.56,3-25.89-2.25-8-9-14.63-20.63-20.2a121,121,0,0,0-39.52-11.2c-4.41-.47-9.56-.76-14.41.56-9.81,2.68-18,12.52-19.47,23.43a31,31,0,0,0,11.61,28.06c7.8,5.88,18,7.59,27.83,9.24a110.32,110.32,0,0,1,16.85,3.73Z"/><path class="cls-6" d="M628.56,107.37a3.75,3.75,0,0,0-4.61.5,3.45,3.45,0,0,0-.05,4.53,3.52,3.52,0,0,0,4.58.48c1.32-1,2.49-4,.1-5.5Z"/><path class="cls-6" d="M645.41,113a3.09,3.09,0,0,0-4,.69,3.78,3.78,0,0,0-.24,4.47,2.76,2.76,0,0,0,4,.27c1.19-1,2.34-4,.32-5.42Z"/><path class="cls-6" d="M662.87,118.9a3.08,3.08,0,0,0-4,.69,3.77,3.77,0,0,0-.23,4.46,2.76,2.76,0,0,0,4,.27c1.19-1,2.34-4,.32-5.42Z"/><path class="cls-5" d="M700.65,70.28h0a.76.76,0,0,0,.44.36.61.61,0,0,0,.22,0,.67.67,0,0,0,.36-.09l8.86-4.74h0a.76.76,0,0,0,.31-1h0l-5.11-9.5h0a.76.76,0,0,0-1-.3h0l-8.86,4.74h0a.77.77,0,0,0-.31,1h0Zm8.5-5.41-7.52,4-4.39-8.17,7.52-4Z"/></g><g id="Layer_3" data-name="Layer 3"><path class="cls-1" d="M714.05,216.77l-4.92-.7a67.91,67.91,0,0,0-72.83,42.7c-22,56.75,36,111.55,91.42,86.37l124.13-56.42A60.55,60.55,0,1,0,788.1,187l-16.46,13.58A74.22,74.22,0,0,1,714.05,216.77Z"/><path class="cls-2" d="M575.82,217.59l-7.57,19.7c-39.56,103,56.4,206.43,151.75,163.53l157.58-70.9c33.59-15.11,58.16-47,65.78-85.47l4.22-21.27c9.55-48.22-16.3-96.5-59.81-111.7a83.38,83.38,0,0,0-76.72,11.45l-35.24,25.4c-24.33,17.54-54.85,21.89-82.63,11.8C646.08,143,594.82,168.1,575.82,217.59Z"/></g><g id="Layer_5" data-name="Layer 5"><path class="cls-8" d="M578.74,186.92l12.12,11.76a10,10,0,0,0,14.15-.21l12.07-12.39a10,10,0,0,0-.2-14.13L604.75,160.2a10,10,0,0,0-14.15.2l-12.07,12.4A10,10,0,0,0,578.74,186.92Z"/><path class="cls-5" d="M648.07,34.74a.76.76,0,0,0-.14,1.07.78.78,0,0,0,.6.28h0a.71.71,0,0,0,.47-.16l13.08-10.2h0a.76.76,0,0,0-.93-1.19h0l-13.07,10.2Z"/><path class="cls-5" d="M518,219h0a.76.76,0,0,1-.11,1.07.7.7,0,0,1-.47.17h-.08a.74.74,0,0,1-.52-.27h0c-4.16-5.08-8.77-8.3-14.14-9.77s-11.54-1.21-18.81.73h0c-7.41,2-13.17,2.07-18.4-.28s-9.85-7.11-15-14.74h0a.76.76,0,0,1,.2-1h0a.78.78,0,0,1,1.06.2h0c5.07,7.47,9.46,12,14.33,14.22s10.28,2.1,17.45.18c7.55-2,14-2.3,19.65-.74S513.65,213.67,518,219Z"/></g></svg>