<svg xmlns="http://www.w3.org/2000/svg" viewBox="0 0 740 240"><defs><style>.cls-1,.cls-10,.cls-3,.cls-6,.cls-7,.cls-9{fill:none;}.cls-1{stroke:#15184c;}.cls-1,.cls-3,.cls-7,.cls-9{stroke-width:2px;}.cls-2{fill:#fff;}.cls-3{stroke:#fff;}.cls-11,.cls-12,.cls-4{fill:#35365f;}.cls-10,.cls-11,.cls-4,.cls-6,.cls-7,.cls-9{stroke:#35365f;}.cls-4{stroke-width:0.5px;}.cls-5{fill:#fa8c5b;}.cls-7{stroke-linecap:round;stroke-linejoin:round;}.cls-8{fill:#68c9ee;}.cls-10{stroke-width:2px;}.cls-11{stroke-width:1.5px;}</style></defs><g id="Layer_1" data-name="Layer 1"><path class="cls-1" d="M676.56-317.16c131.88-15.62,178.2-54.65,290.88-6.24A120.54,120.54,0,0,1,1001-302c61.88,56.17,101.28,142.4,95.68,324.37-6,196.71-152.22,388.78-316,411.1S568.2,332.1,498.64,245.9,333.18,119.11,371.08-64.82,537.84-300.73,676.56-317.16Z"/><path class="cls-2" d="M479.11-23.57c113.64-59.19,260-140.19,375.44-52.36,68,51.74,77.32,186.06,59.72,316C881.94,478.74,91,576.08,313.32,329.9,431.92,198.59,365.48,35.62,479.11-23.57Z"/><path class="cls-3" d="M673.54-124.73c139.05-26.37,201.82,100.38,301.19,233,85,97.73,157,241.31,63.47,396.55s-214.39,125.42-409,148.94c-209.35,25.29-306.19-92.53-281-380.1S534.49-98.37,673.54-124.73Z"/></g><g id="Layer_2" data-name="Layer 2"><path class="cls-4" d="M788.54,68.48a10.12,10.12,0,1,0-9.83-10.12A10,10,0,0,0,788.54,68.48Zm0-18.66a8.55,8.55,0,1,1-8.3,8.54A8.43,8.43,0,0,1,788.54,49.82Z"/><path class="cls-4" d="M804.17,148.79a.76.76,0,0,0,.67-.41l7.92-14.67a.79.79,0,0,0-.31-1.08l-15.06-8.15a.73.73,0,0,0-.58,0,.79.79,0,0,0-.46.38l-7.92,15.49a.81.81,0,0,0,0,.61.75.75,0,0,0,.39.46l15.07,7.34a.72.72,0,0,0,.32.08Zm6.88-15.14L803.85,147l-13.69-6.68,7.19-14.06Z"/><path class="cls-5" d="M714.51,77.38l46.62,14.38a5.16,5.16,0,0,1,3.36,6.4l-14,47.92a5,5,0,0,1-6.22,3.44l-46.62-14.38a5.16,5.16,0,0,1-3.36-6.4l14-47.92A5,5,0,0,1,714.51,77.38Z"/><path class="cls-4" d="M736.63,56.23a.79.79,0,0,0,.65-.26l21-24.13a.8.8,0,0,0-.07-1.11.75.75,0,0,0-1.08.06l-21,24.13A.8.8,0,0,0,736.2,56,.72.72,0,0,0,736.63,56.23Z"/><path class="cls-4" d="M729.13,219.82a.71.71,0,0,0,.6-.06.79.79,0,0,0,.3-1.06l-12.95-24a.74.74,0,0,0-1-.31.79.79,0,0,0-.3,1.06l13,24A.76.76,0,0,0,729.13,219.82Z"/><path class="cls-6" d="M758.37,186.89a.35.35,0,0,0,.2,0,.38.38,0,0,0,.17-.31c0-4.83.08-9.64.13-14.68a.34.34,0,0,0-.18-.31.34.34,0,0,0-.35,0l-14.26,6.88a.4.4,0,0,0-.21.32.4.4,0,0,0,.18.34c4.66,2.72,9.48,5.52,14.16,7.8A.45.45,0,0,0,758.37,186.89Zm-.24-14.44c0,4.6-.09,9.05-.13,13.48-4.28-2.12-8.68-4.66-13-7.15Z"/><path class="cls-4" d="M490.3,92.81a.74.74,0,0,0,.6-.3.78.78,0,0,0-.13-1.1L471.1,75.6a.75.75,0,0,0-1.07.14.8.8,0,0,0,.13,1.1l19.67,15.8a.72.72,0,0,0,.48.17Z"/><path class="cls-7" d="M669.6,45l3.62,11.32a3,3,0,0,0,4.18,1.9l25-12a3.06,3.06,0,0,0,1.36-4.11L695.43,25a3,3,0,0,0-4-1.47L670.73,33.57a3.11,3.11,0,0,0,.43,5.69l12.07,4.26A2.93,2.93,0,0,0,687,41.74l4.49-12.45"/><path class="cls-7" d="M739,136.6c-.31,0-.61-.07-.93-.13s-.63-.14-1-.22c-14.69-4.19-25-18.33-25.05-34.36A9.35,9.35,0,0,1,714.66,95c.41-.38.86-.72,1.28-1.09h0l1.55-1.26a6.66,6.66,0,0,1,9.65,1.29l1.8,2.45a7.39,7.39,0,0,1,1.33,5.35,7.27,7.27,0,0,1-2.65,4.8l-1.55,1.26h0c-1.32,1.08-2.4,2.79-1.71,4.37a25.3,25.3,0,0,0,6.91,9.29,2.73,2.73,0,0,0,3.41-.34h0l1.55-1.25a6.63,6.63,0,0,1,9.64,1.28l1.8,2.47c2.3,3.15,1.4,8.36-1.26,10.29-.93.68-1.55.86-2,.76"/><path class="cls-4" d="M505,190a.62.62,0,0,0,.23,0,.76.76,0,0,0,.45-.38l7.68-14.72a.8.8,0,0,0-.31-1.06l-13.32-7.35a.77.77,0,0,0-1,.32L491,181.47a.8.8,0,0,0,.31,1.07l13.32,7.35A.77.77,0,0,0,505,190Zm6.65-15.19-7,13.34-12-6.61,7-13.33Z"/><path class="cls-8" d="M516.85,51.71l73.07,28.64A5.18,5.18,0,0,1,592.81,87l-24.14,65.11a5,5,0,0,1-6.46,3l-73.07-28.64a5.18,5.18,0,0,1-2.89-6.63l24.14-65.11A5,5,0,0,1,516.85,51.71Z"/><path class="cls-4" d="M623.22,35.77a10,10,0,0,0,9.83-10.11,9.84,9.84,0,1,0-9.83,10.11Zm0-18.66a8.55,8.55,0,1,1-8.31,8.55A8.45,8.45,0,0,1,623.22,17.11Z"/></g><g id="Layer_4" data-name="Layer 4"><path class="cls-6" d="M538.55,95.07a.39.39,0,0,1-.3,0,.4.4,0,0,1-.25-.39c.25-6.42-4.07-12.16-7.33-15.93-.75-.87-1.53-1.73-2.29-2.57-3.32-3.67-6.74-7.47-8.6-12.15a21.27,21.27,0,0,1,2.36-19.79c3.36-4.67,8.54-7.66,13.13-10.09,6.94-3.67,13.92-6.63,22.32-10.11,7.95-3.3,14.57-4,19.7-2a12.49,12.49,0,0,1,6.81,5.82c4.11,8.21,7.36,16.78,3.44,23.85-2.09,3.76-5.76,6.09-9.65,8.34-6.37,3.68-13,7.17-19.62,10.36-6,2.88-12.81,6.16-15.36,12.44a28.7,28.7,0,0,0-1.28,4.67c-.57,2.66-1.16,5.4-2.94,7.5a.36.36,0,0,1-.15.1ZM557.9,24.78c-8.38,3.48-15.35,6.43-22.26,10.09-4.51,2.39-9.6,5.31-12.85,9.85a20.4,20.4,0,0,0-2.27,19c1.8,4.54,5.17,8.29,8.44,11.92.76.84,1.54,1.71,2.29,2.58,3.15,3.63,7.25,9.07,7.52,15.26a18.82,18.82,0,0,0,2.08-6.2,29.39,29.39,0,0,1,1.32-4.8c2.66-6.56,9.61-9.91,15.74-12.85,6.62-3.18,13.21-6.66,19.57-10.33,3.8-2.19,7.37-4.45,9.36-8,3.75-6.75.55-15.09-3.45-23.1A11.63,11.63,0,0,0,577,22.75c-4.94-1.87-11.38-1.18-19.12,2Z"/><path class="cls-6" d="M533.87,57.56a.46.46,0,0,1-.35-.85l12.28-5.15a.43.43,0,0,1,.55.27.44.44,0,0,1-.2.57l0,0-12.23,5.14Z"/><path class="cls-6" d="M552.75,49.73c-.2.08-.43-.06-.55-.31a.47.47,0,0,1,.16-.61l20.7-9.09c.2-.08.43.05.55.31a.47.47,0,0,1-.16.61l-20.7,9.09Z"/><path class="cls-6" d="M537.41,66.09a.42.42,0,0,1-.53-.25.42.42,0,0,1,.19-.56L574.6,48.55a.44.44,0,0,1,.35.81L537.42,66.08Z"/><path class="cls-6" d="M531.7,48.83a.42.42,0,0,1-.53-.24.44.44,0,0,1,.19-.57L568.89,31.3a.44.44,0,0,1,.35.8L531.71,48.83Z"/></g><g id="Layer_5" data-name="Layer 5"><path class="cls-9" d="M616.17,225.53s-1,12.7,3.48,30.85c-5.35,1.41-64.9,11.74-64.9,11.74s-10.81-4,6.21-32.49,18.25-32,18.25-32"/><path class="cls-9" d="M621.16,222.63c-8.74,11-48.45-10.82-41.38-24.23"/><path class="cls-9" d="M562.29,124.28c-5.57,10.29-8.43,21.18-6.23,32.67,3.76,20.61,19.45,41.72,43.07,55.68,23.82,13.63,49.85,16.57,70,9.84,11.34-3.84,19.24-11.39,25.62-21.52"/><path class="cls-9" d="M640.49,145.69c36,21.2,60.31,44.79,54.22,55.26-6,10.28-40.68,2.77-77.76-18.57-37.15-21.61-61.19-47-55-57.62,5.89-10.12,38.86-1.81,75.31,19"/><path class="cls-9" d="M625.58,177.85l-9-5.21,24.59-35.41,3.25,1.67Z"/><circle class="cls-10" cx="646.1" cy="132.93" r="6.18"/></g><g id="Layer_6" data-name="Layer 6"><path class="cls-11" d="M656.21,115.54l0,0c-2.88-1.92-4.31-5.13-5.7-8.24a29.74,29.74,0,0,0-2.8-5.31c-3.4-4.66-8.92-6.17-14.76-7.76-4.9-1.34-10-2.72-13.67-6.14a16,16,0,0,1-4.56-15.2c1.34-5.62,6.14-10.33,11.41-11.21a20.28,20.28,0,0,1,7.44.45,61.2,61.2,0,0,1,19.37,7.64c5.68,3.46,8.81,7.23,9.56,11.53.79,4.47-1.05,8.88-2.83,13.16-.63,1.5-1.27,3-1.79,4.56a32.25,32.25,0,0,0-1.21,16.19.31.31,0,0,1-.12.32.28.28,0,0,1-.29,0ZM641.32,96.31a16.5,16.5,0,0,1,6.82,5.26A30.5,30.5,0,0,1,651,107c1.25,2.8,2.54,5.7,4.91,7.57a32.81,32.81,0,0,1,1.36-15.76c.53-1.54,1.18-3.09,1.81-4.6,1.74-4.19,3.54-8.52,2.79-12.79s-3.77-7.77-9.3-11.14a60.88,60.88,0,0,0-19.19-7.57,19.86,19.86,0,0,0-7.23-.45c-5,.85-9.63,5.36-10.91,10.73a15.57,15.57,0,0,0,4.4,14.61c3.6,3.33,8.6,4.7,13.44,6a56.37,56.37,0,0,1,8.24,2.71Z"/><path class="cls-12" d="M630.49,74.66a1.88,1.88,0,0,0-2.33,0,1.74,1.74,0,0,0-.25,2.26,1.79,1.79,0,0,0,2.27.47,1.71,1.71,0,0,0,.32-2.75Z"/><path class="cls-12" d="M638.63,78.33a1.55,1.55,0,0,0-2,.14,1.89,1.89,0,0,0-.35,2.22,1.38,1.38,0,0,0,2,.34c.65-.46,1.37-1.89.44-2.7Z"/><path class="cls-12" d="M647.06,82.14a1.54,1.54,0,0,0-2,.14,1.87,1.87,0,0,0-.34,2.22,1.39,1.39,0,0,0,2,.34c.64-.47,1.37-1.89.43-2.7Z"/></g></svg>