<svg width="25" height="24" viewBox="0 0 25 24" fill="none" xmlns="http://www.w3.org/2000/svg">
<path d="M20.1604 13.9613C20.1799 13.8832 20.197 13.8026 20.2141 13.7244C20.197 13.805 20.1799 13.8832 20.1604 13.9613H16.6066L21.7041 19.0613C20.9469 20.0993 20.0285 21.0104 18.9855 21.7578L16.3867 19.159L13.871 16.6432V20.1824V23.8535C13.2628 23.9487 12.6375 24 12.0024 24C11.3332 24 10.6786 23.9438 10.0387 23.8388V20.1604V11.9536H10.0411C10.0558 12.3297 10.1803 12.679 10.3782 12.9721C10.7323 13.4899 11.3283 13.8294 12 13.8294C13.0503 13.8294 13.9076 13.0039 13.9589 11.9683C13.9589 11.9341 13.9638 11.9023 13.9638 11.8681V7.39346L16.4649 4.89234L19.0613 2.29596C20.0993 3.05313 21.0104 3.97151 21.7578 5.01446L19.159 7.61328L16.6432 10.1291H20.1824C20.1921 10.173 20.2019 10.217 20.2117 10.2634C20.2044 10.217 20.1946 10.1755 20.1848 10.1291H23.8559C23.9511 10.7372 24.0024 11.3625 24.0024 11.9976C24.0024 12.6668 23.9463 13.3214 23.8412 13.9613H20.1628H20.1604Z" fill="#3CCBF2"/>
<path d="M13.9613 0.158762V11.9511C13.9613 11.9511 13.9613 11.9634 13.9564 11.9682C13.9564 11.9341 13.9613 11.9023 13.9613 11.8681C13.9613 10.7836 13.082 9.90678 11.9976 9.90678C10.9131 9.90678 10.0362 10.7836 10.0362 11.8681C10.0362 11.895 10.0362 11.9243 10.0387 11.9536C10.0533 12.3297 10.0533 11.8095 10.0362 11.8046V13.8685V16.6041L4.93629 21.704C3.89823 20.9469 2.98718 20.0285 2.23977 18.9855L7.35436 13.871H0.144107C0.04885 13.2628 0 12.6375 0 12.0024C0 11.3332 0.053735 10.6786 0.161205 10.0387H3.83717C3.82984 10.0704 3.82495 10.0997 3.81763 10.1315C3.82495 10.0997 3.82984 10.0704 3.83717 10.0387H7.391L4.88988 7.53755L2.29351 4.94118C3.05068 3.90311 3.96906 2.99206 5.01201 2.24466L10.1266 7.35925V0.144107C10.7348 0.04885 11.3601 0 11.9951 0C12.6644 0 13.3189 0.053735 13.9589 0.158762H13.9613Z" fill="#5755EF"/>
</svg>
