<svg width="163" height="24" viewBox="0 0 163 24" fill="none" xmlns="http://www.w3.org/2000/svg">
<g clip-path="url(#clip0_32_1178)">
<path d="M34.2536 12.1929C34.4466 14.2593 35.6043 15.1484 36.9575 15.2632C37.0552 15.2632 37.1309 15.2827 37.2286 15.2827C38.2324 15.2827 39.1606 14.7795 39.9129 13.9491C40.0472 13.7952 40.2597 13.6975 40.4331 13.6975C40.7042 13.6975 40.8972 13.9296 40.7042 14.4693C39.9715 16.3427 38.3106 17.1146 36.552 17.1732C34.0216 17.1732 32.1115 15.7834 31.7452 13.1944C31.1467 9.56481 33.2717 7.26642 36.6302 7.26642C38.7161 7.26642 40.1645 7.78667 40.7238 9.39139C41.0706 10.4148 40.3379 11.1866 39.4293 11.1866C39.1215 11.1866 38.7918 11.1085 38.484 10.9155C37.3067 10.1241 37.3824 8.5414 36.3981 8.5414C36.359 8.5414 36.32 8.56094 36.2638 8.56094C35.0474 8.67574 34.0436 10.0289 34.256 12.1905L34.2536 12.1929Z" fill="#231F20"/>
<path d="M47.0157 7.26886C49.7195 7.26886 51.9202 8.75634 51.9202 12.2125C51.9202 15.6686 49.7195 17.1756 47.0157 17.1756C44.3118 17.1756 42.1111 15.6882 42.1111 12.2125C42.1111 8.7368 44.2923 7.26886 47.0157 7.26886ZM46.8032 8.56338H46.6102C45.3743 8.67818 44.7368 9.79929 45.0079 12.4054C45.2595 14.8577 46.0704 15.8811 47.2086 15.8811H47.4016C48.657 15.7834 49.275 14.6647 49.0234 12.0391C48.7718 9.58679 47.9609 8.56338 46.8032 8.56338Z" fill="#231F20"/>
<path d="M65.7863 7.26886C67.7354 7.26886 68.876 8.42661 68.876 10.4734V14.7405C68.876 15.6662 69.726 15.5514 69.726 16.267C69.726 16.7506 69.4183 16.9241 68.9542 16.9802C68.4706 17.0389 68.0089 17.0779 67.5644 17.0779C67.0612 17.0779 66.5801 17.0389 66.116 16.9802C65.5371 16.9216 65.2269 16.7482 65.2269 16.267C65.2269 15.5538 66.2113 15.6686 66.2113 14.7405V11.3039C66.2113 9.89455 65.7276 9.12272 64.8215 9.12272C63.6637 9.12272 62.9481 11.0914 62.7942 12.4054V14.7429C62.7942 15.6686 63.6247 15.5538 63.6247 16.2695C63.6247 16.7531 63.334 16.9265 62.8528 16.9827C62.3716 17.0389 61.9271 17.0804 61.463 17.0804C60.999 17.0804 60.4983 17.0413 60.0342 16.9827C59.4553 16.9241 59.1256 16.8093 59.1256 16.3061C59.1256 15.5905 60.1099 15.6686 60.1099 14.7429V11.3063C60.1099 9.89699 59.6458 9.12516 58.7397 9.12516C57.5819 9.12516 56.8663 11.0938 56.6928 12.4079V14.7258C56.6928 15.6711 57.5233 15.5367 57.5233 16.2524C57.5233 16.736 57.2326 16.9289 56.771 16.9656C56.3069 17.0437 55.8624 17.0633 55.4203 17.0633C54.9171 17.0633 54.4164 17.0242 53.9328 16.9656C53.3539 16.907 53.0437 16.7531 53.0437 16.289C53.0437 15.5929 54.0281 15.7297 54.0281 14.8211V9.80173C54.0281 9.0299 53.0437 8.91266 53.0437 8.14083C53.0437 7.71584 53.4297 7.44472 54.221 7.44472H55.0906C55.6499 7.44472 56.2678 7.75248 56.5194 8.38997C56.539 8.48767 56.5585 9.06654 56.578 9.18134C56.5976 9.2595 56.6367 9.29614 56.6757 9.29614C56.6953 9.29614 56.7539 9.25706 56.7905 9.19844C57.428 8.11641 58.4319 7.26642 59.6873 7.26642C61.2139 7.26642 62.2373 7.99917 62.5842 9.31323C62.6232 9.39139 62.6428 9.42803 62.6794 9.42803C62.716 9.42803 62.7576 9.38895 62.7942 9.33277C63.4512 8.15549 64.4746 7.26642 65.7863 7.26642V7.26886Z" fill="#231F20"/>
<path d="M83.531 7.26886C85.4801 7.26886 86.6208 8.42661 86.6208 10.4734V14.7405C86.6208 15.6662 87.4708 15.5514 87.4708 16.267C87.4708 16.7506 87.163 16.9241 86.699 16.9802C86.2153 17.0389 85.7537 17.0779 85.3092 17.0779C84.806 17.0779 84.3248 17.0389 83.8608 16.9802C83.2819 16.9216 82.9717 16.7482 82.9717 16.267C82.9717 15.5538 83.956 15.6686 83.956 14.7405V11.3039C83.956 9.89455 83.4724 9.12272 82.5662 9.12272C81.4085 9.12272 80.6928 11.0914 80.539 12.4054V14.7429C80.539 15.6686 81.3694 15.5538 81.3694 16.2695C81.3694 16.7531 81.0788 16.9265 80.5976 16.9827C80.1164 17.0389 79.6719 17.0804 79.2078 17.0804C78.7437 17.0804 78.243 17.0413 77.779 16.9827C77.2001 16.9241 76.8703 16.8093 76.8703 16.3061C76.8703 15.5905 77.8547 15.6686 77.8547 14.7429V11.3063C77.8547 9.89699 77.3906 9.12516 76.4844 9.12516C75.3267 9.12516 74.611 11.0938 74.4376 12.4079V14.7258C74.4376 15.6711 75.2681 15.5367 75.2681 16.2524C75.2681 16.736 74.9774 16.9289 74.5158 16.9656C74.0517 17.0437 73.6072 17.0633 73.1651 17.0633C72.6619 17.0633 72.1612 17.0242 71.6776 16.9656C71.0987 16.907 70.7885 16.7531 70.7885 16.289C70.7885 15.5929 71.7728 15.7297 71.7728 14.8211V9.80173C71.7728 9.0299 70.7885 8.91266 70.7885 8.14083C70.7885 7.71584 71.1744 7.44472 71.9658 7.44472H72.8353C73.3947 7.44472 74.0126 7.75248 74.2642 8.38997C74.2837 8.48767 74.3033 9.06654 74.3228 9.18134C74.3424 9.2595 74.3814 9.29614 74.4205 9.29614C74.4401 9.29614 74.4987 9.25706 74.5353 9.19844C75.1728 8.11641 76.1767 7.26642 77.4321 7.26642C78.9587 7.26642 79.9821 7.99917 80.3289 9.31323C80.368 9.39139 80.3875 9.42803 80.4242 9.42803C80.4608 9.42803 80.5023 9.38895 80.539 9.33277C81.196 8.15549 82.2194 7.26642 83.531 7.26642V7.26886Z" fill="#231F20"/>
<path d="M88.5308 8.13841C88.5308 7.71341 88.9167 7.44229 89.7081 7.44229H90.5776C91.3104 7.44229 92.1799 7.92591 92.1799 8.92978V13.1577C92.1799 14.5475 92.6831 15.3194 93.6478 15.3194C94.9985 15.3194 95.7728 12.8085 95.8485 11.6312V9.8164C95.8485 9.02503 94.8642 8.91024 94.8642 8.13596C94.8642 7.73051 95.1915 7.43985 95.9072 7.43985H96.911C97.6438 7.43985 98.5328 7.92346 98.5328 8.92733V14.6428C98.5328 15.4342 99.4976 15.5319 99.4976 16.3037C99.4976 16.7482 99.1117 17.0169 98.3203 17.0169H97.4508C96.8329 17.0169 96.1172 16.6505 95.9243 15.8982C95.8852 15.6271 95.8461 15.2021 95.8095 15.0873C95.7313 15.1459 95.6556 15.2412 95.5383 15.378C94.9204 16.3818 93.9361 17.1732 92.7002 17.1732C90.6924 17.1732 89.5151 16.0155 89.5151 13.9882V9.8164C89.5151 9.02503 88.5308 8.91024 88.5308 8.13596V8.13841Z" fill="#231F20"/>
<path d="M107.319 7.26886C109.385 7.26886 110.601 8.42661 110.601 10.4734V14.7405C110.601 15.6857 111.432 15.5514 111.432 16.267C111.432 16.7702 111.141 16.9436 110.679 16.9998C110.196 17.0584 109.734 17.0975 109.29 17.0975C108.789 17.0975 108.305 17.0584 107.841 16.9998C107.262 16.9216 106.952 16.7677 106.952 16.267C106.952 15.5538 107.936 15.6882 107.936 14.7405V11.3039C107.936 9.89455 107.397 9.12272 106.39 9.12272C104.962 9.12272 104.151 11.6336 104.072 12.8304V14.7429C104.072 15.6882 104.903 15.5538 104.903 16.2695C104.903 16.7726 104.612 16.946 104.151 17.0022C103.667 17.0608 103.205 17.0999 102.761 17.0999C102.258 17.0999 101.776 17.0608 101.312 17.0022C100.734 16.9241 100.423 16.7702 100.423 16.3061C100.423 15.6295 101.408 15.7468 101.408 14.8382V9.79929C101.408 9.02746 100.423 8.91022 100.423 8.13839C100.423 7.71339 100.809 7.44228 101.601 7.44228H102.47C103.049 7.44228 103.726 7.73293 103.958 8.38752C103.977 8.56094 103.997 9.08364 104.036 9.29614C104.055 9.35476 104.075 9.39383 104.114 9.39383C104.134 9.39383 104.173 9.37429 104.212 9.31567C104.849 8.13839 105.948 7.26886 107.321 7.26886H107.319Z" fill="#231F20"/>
<path d="M116.163 14.8382C116.163 15.7468 117.147 15.6295 117.147 16.3061C117.147 16.7702 116.837 16.9241 116.239 17.0022C115.814 17.0608 115.349 17.0999 114.868 17.0999C114.387 17.0999 113.884 17.0608 113.4 17.0022C112.821 16.9241 112.511 16.7702 112.511 16.3061C112.511 15.6295 113.496 15.7468 113.496 14.8382V9.81884C113.496 9.02747 112.511 8.91267 112.511 8.1384C112.511 7.7134 112.878 7.44229 113.574 7.44229H114.558C115.542 7.44229 116.16 7.9259 116.16 8.92977V14.8382H116.163ZM114.636 2.88458C115.718 2.88458 116.431 3.52207 116.431 4.48686C116.431 5.45165 115.718 6.08914 114.636 6.08914C113.554 6.08914 112.821 5.45165 112.821 4.48686C112.821 3.52207 113.554 2.88458 114.636 2.88458Z" fill="#231F20"/>
<path d="M120.913 12.1929C121.106 14.2593 122.264 15.1484 123.617 15.2632C123.715 15.2632 123.791 15.2827 123.888 15.2827C124.892 15.2827 125.82 14.7795 126.573 13.9491C126.707 13.7952 126.92 13.6975 127.093 13.6975C127.364 13.6975 127.557 13.9296 127.364 14.4693C126.631 16.3427 124.97 17.1146 123.212 17.1732C120.681 17.1732 118.771 15.7834 118.405 13.1944C117.807 9.56481 119.932 7.26642 123.29 7.26642C125.376 7.26642 126.824 7.78667 127.384 9.39139C127.731 10.4148 126.998 11.1866 126.089 11.1866C125.781 11.1866 125.452 11.1085 125.144 10.9155C123.967 10.1241 124.042 8.5414 123.058 8.5414C123.019 8.5414 122.98 8.56094 122.924 8.56094C121.707 8.67574 120.703 10.0289 120.916 12.1905L120.913 12.1929Z" fill="#231F20"/>
<path d="M128.888 14.5084C128.888 12.0757 132.576 11.3991 134.662 11.1109C134.797 11.0914 134.875 10.9961 134.875 10.8593V10.4343C134.875 9.17889 134.489 8.40706 133.541 8.40706C132.518 8.40706 132.112 9.45001 131.533 10.0289C131.243 10.3195 130.837 10.4539 130.471 10.4539C129.873 10.4539 129.313 10.0875 129.313 9.41093C129.313 8.15549 131.458 7.26886 133.541 7.26886C135.625 7.26886 137.557 8.13839 137.557 10.5711V14.4327C137.557 15.7077 138.328 15.3022 138.619 15.7077C138.927 16.1522 138.116 17.0779 136.9 17.0779C136.301 17.0779 135.625 16.885 135.239 16.0155C135.2 15.9373 135.161 15.9007 135.124 15.9007C135.087 15.9007 135.026 15.9397 134.99 15.9959C134.352 16.7116 133.348 17.1732 132.112 17.1732C130.644 17.1732 128.888 16.5552 128.888 14.5084ZM133.194 15.7053C133.947 15.7053 134.758 15.1459 134.875 14.3716V12.4592C134.875 12.3053 134.797 12.2858 134.662 12.2858C133.58 12.4592 131.765 12.9037 131.726 14.2178C131.707 15.1435 132.403 15.7053 133.194 15.7053Z" fill="#231F20"/>
<path d="M139.799 7.44228C140.185 7.44228 140.358 7.46182 140.629 7.48136C140.744 7.5009 140.822 7.42274 140.822 7.30794V5.60796C140.822 4.91185 142.212 4.43068 142.984 4.21818C143.042 4.19864 143.099 4.19864 143.157 4.19864C143.428 4.19864 143.504 4.43068 143.504 4.71889V7.38366C143.504 7.49846 143.582 7.55708 143.697 7.55708C144.256 7.49846 144.779 7.44228 145.492 7.44228C146.362 7.44228 146.362 9.00548 145.492 9.00548C144.796 9.00548 144.256 8.91022 143.697 8.8516C143.582 8.83206 143.504 8.91022 143.504 9.02502V14.0273C143.504 15.1093 143.756 15.4366 144.103 15.4366C144.586 15.4366 145.299 14.7795 145.803 14.7795C145.881 14.7795 145.956 14.7991 146.035 14.8382C146.653 15.2632 145.842 17.1756 143.504 17.1756C142.346 17.1756 140.82 16.8093 140.82 14.3179V9.12272C140.82 9.00792 140.742 8.92976 140.627 8.9493C140.453 8.96884 140.221 8.98838 139.796 9.00792C138.985 9.02746 138.946 7.44472 139.796 7.44472L139.799 7.44228Z" fill="#231F20"/>
<path d="M152.715 15.3975C153.777 15.3975 154.647 14.8186 155.458 13.91C155.612 13.7366 155.805 13.6389 155.961 13.6389C156.212 13.6389 156.366 13.8709 156.173 14.3912C155.421 16.3794 153.914 17.1537 151.945 17.1708C149.513 17.1708 147.6 15.8201 147.119 13.1919C146.579 10.2756 148.433 7.37877 151.752 7.26398C153.413 7.26398 154.977 7.66943 155.768 9.27171C156.347 10.4295 155.902 11.3771 154.649 11.9756L150.67 13.849C150.536 13.9271 150.477 14.0615 150.573 14.1762C151.056 15.0262 151.77 15.3926 152.717 15.3926L152.715 15.3975ZM152.405 11.3234C153.196 10.9766 153.601 10.5711 153.235 9.87501C152.927 9.23752 152.29 8.67818 151.479 8.67818C151.325 8.67818 151.152 8.69772 150.976 8.75634C149.606 9.10318 149.295 10.6884 149.681 12.2711C149.72 12.3859 149.796 12.4445 149.894 12.4445C149.913 12.4445 149.952 12.4445 149.991 12.425L152.405 11.3234Z" fill="#231F20"/>
<path d="M160.023 3.58313C161.703 3.58313 162.812 4.69447 162.812 6.37979C162.812 8.06512 161.701 9.16913 160.023 9.16913C158.345 9.16913 157.226 8.05779 157.226 6.37979C157.226 4.70179 158.337 3.58313 160.023 3.58313ZM157.561 6.37979C157.561 7.84529 158.55 8.82962 160.023 8.82962C161.496 8.82962 162.473 7.84773 162.473 6.37979C162.473 4.91185 161.491 3.92508 160.023 3.92508C158.555 3.92508 157.561 4.90696 157.561 6.37979ZM158.55 7.83796C158.55 7.70363 158.792 7.75248 158.792 7.52532V5.34661C158.792 5.08282 158.55 5.10481 158.55 4.93383C158.55 4.83369 158.657 4.77751 158.877 4.77751H159.874C160.685 4.77751 161.283 5.08282 161.283 5.8229C161.283 6.36269 160.963 6.64114 160.443 6.74861C160.406 6.76326 160.401 6.78525 160.421 6.81211L160.912 7.44472C161.19 7.80865 161.466 7.77934 161.466 7.90147C161.466 7.97963 161.31 8.05046 161.11 8.05046C160.897 8.05046 160.734 7.9723 160.484 7.63768L159.993 6.95378C159.945 6.89027 159.879 6.83165 159.815 6.83165H159.317C159.28 6.83165 159.261 6.85364 159.261 6.88783V7.50823C159.261 7.73538 159.488 7.70851 159.488 7.83552C159.488 7.94299 159.402 7.96986 159.217 7.96986H158.853C158.653 7.96986 158.547 7.94055 158.547 7.83552L158.55 7.83796ZM159.261 5.39546V6.39933C159.261 6.48482 159.317 6.52146 159.368 6.52146H159.859C160.414 6.52146 160.748 6.33583 160.748 5.81557C160.748 5.29532 160.406 5.09015 159.859 5.09015H159.495C159.31 5.09015 159.261 5.22449 159.261 5.39546Z" fill="#231F20"/>
<path d="M20.1604 13.9613C20.1799 13.8832 20.197 13.8026 20.2141 13.7244C20.197 13.805 20.1799 13.8832 20.1604 13.9613H16.6066L21.7041 19.0613C20.9469 20.0993 20.0285 21.0104 18.9855 21.7578L16.3867 19.159L13.871 16.6432V20.1824V23.8535C13.2628 23.9487 12.6375 24 12.0024 24C11.3332 24 10.6786 23.9438 10.0387 23.8388V20.1604V11.9536H10.0411C10.0558 12.3297 10.1803 12.679 10.3782 12.9721C10.7323 13.4899 11.3283 13.8294 12 13.8294C13.0503 13.8294 13.9076 13.0039 13.9589 11.9683C13.9589 11.9341 13.9638 11.9023 13.9638 11.8681V7.39346L16.4649 4.89234L19.0613 2.29596C20.0993 3.05313 21.0104 3.97151 21.7578 5.01446L19.159 7.61328L16.6432 10.1291H20.1824C20.1921 10.173 20.2019 10.217 20.2117 10.2634C20.2044 10.217 20.1946 10.1755 20.1848 10.1291H23.8559C23.9511 10.7372 24.0024 11.3625 24.0024 11.9976C24.0024 12.6668 23.9463 13.3214 23.8412 13.9613H20.1628H20.1604Z" fill="#3CCBF2"/>
<path d="M13.9613 0.158762V11.9511C13.9613 11.9511 13.9613 11.9634 13.9564 11.9682C13.9564 11.9341 13.9613 11.9023 13.9613 11.8681C13.9613 10.7836 13.082 9.90678 11.9976 9.90678C10.9131 9.90678 10.0362 10.7836 10.0362 11.8681C10.0362 11.895 10.0362 11.9243 10.0387 11.9536C10.0533 12.3297 10.0533 11.8095 10.0362 11.8046V13.8685V16.6041L4.93629 21.704C3.89823 20.9469 2.98718 20.0285 2.23977 18.9855L7.35436 13.871H0.144107C0.04885 13.2628 0 12.6375 0 12.0024C0 11.3332 0.053735 10.6786 0.161205 10.0387H3.83717C3.82984 10.0704 3.82495 10.0997 3.81763 10.1315C3.82495 10.0997 3.82984 10.0704 3.83717 10.0387H7.391L4.88988 7.53755L2.29351 4.94118C3.05068 3.90311 3.96906 2.99206 5.01201 2.24466L10.1266 7.35925V0.144107C10.7348 0.04885 11.3601 0 11.9951 0C12.6644 0 13.3189 0.053735 13.9589 0.158762H13.9613Z" fill="#5755EF"/>
<path d="M13.9589 11.8681C13.9589 11.9023 13.9589 11.934 13.9564 11.9682C13.9051 13.0039 13.0478 13.8294 11.9976 13.8294C11.3234 13.8294 10.7299 13.4899 10.3757 12.9721C10.1779 12.679 10.0533 12.3297 10.0387 11.9536C10.0362 11.9267 10.0362 11.8974 10.0362 11.8681C10.0362 10.7836 10.9155 9.90677 11.9976 9.90677C13.0796 9.90677 13.9589 10.7836 13.9589 11.8681Z" fill="white"/>
</g>
<defs>
<clipPath id="clip0_32_1178">
<rect width="162.815" height="24" fill="white"/>
</clipPath>
</defs>
</svg>
